<svg width="256" height="256" viewBox="0 0 256 256" fill="none" xmlns="http://www.w3.org/2000/svg">
<rect width="256" height="256" rx="50" fill="black"/>
<path d="M71.6136 217.455L75.3636 223.506H75.4773L79.2273 217.455H81.3011L76.7273 224.727L81.3011 232H79.2273L75.4773 226.062H75.3636L71.6136 232H69.5398L74.2273 224.727L69.5398 217.455H71.6136ZM83.5934 232V217.455H92.315V219.017H85.3548V223.932H91.6616V225.494H85.3548V232H83.5934ZM98.7354 232.227C97.7506 232.227 96.8865 231.993 96.1431 231.524C95.4045 231.055 94.8268 230.4 94.4102 229.557C93.9982 228.714 93.7923 227.729 93.7923 226.602C93.7923 225.466 93.9982 224.474 94.4102 223.626C94.8268 222.779 95.4045 222.121 96.1431 221.652C96.8865 221.183 97.7506 220.949 98.7354 220.949C99.7203 220.949 100.582 221.183 101.321 221.652C102.064 222.121 102.642 222.779 103.054 223.626C103.47 224.474 103.679 225.466 103.679 226.602C103.679 227.729 103.47 228.714 103.054 229.557C102.642 230.4 102.064 231.055 101.321 231.524C100.582 231.993 99.7203 232.227 98.7354 232.227ZM98.7354 230.722C99.4835 230.722 100.099 230.53 100.582 230.146C101.065 229.763 101.422 229.259 101.654 228.634C101.886 228.009 102.002 227.331 102.002 226.602C102.002 225.873 101.886 225.194 101.654 224.564C101.422 223.934 101.065 223.425 100.582 223.037C100.099 222.649 99.4835 222.455 98.7354 222.455C97.9873 222.455 97.3718 222.649 96.8888 223.037C96.4059 223.425 96.0484 223.934 95.8164 224.564C95.5844 225.194 95.4684 225.873 95.4684 226.602C95.4684 227.331 95.5844 228.009 95.8164 228.634C96.0484 229.259 96.4059 229.763 96.8888 230.146C97.3718 230.53 97.9873 230.722 98.7354 230.722ZM106.237 232V221.091H107.857V222.739H107.97C108.169 222.199 108.529 221.761 109.05 221.425C109.571 221.089 110.158 220.92 110.811 220.92C110.934 220.92 111.088 220.923 111.273 220.928C111.457 220.932 111.597 220.939 111.692 220.949V222.653C111.635 222.639 111.505 222.618 111.301 222.589C111.102 222.556 110.892 222.54 110.669 222.54C110.139 222.54 109.665 222.651 109.249 222.874C108.837 223.091 108.51 223.394 108.268 223.783C108.032 224.166 107.913 224.604 107.913 225.097V232H106.237ZM117.778 232.227C116.756 232.227 115.875 231.986 115.136 231.503C114.398 231.02 113.83 230.355 113.432 229.507C113.034 228.66 112.835 227.691 112.835 226.602C112.835 225.494 113.039 224.517 113.446 223.669C113.858 222.817 114.431 222.152 115.165 221.673C115.903 221.19 116.765 220.949 117.75 220.949C118.517 220.949 119.208 221.091 119.824 221.375C120.439 221.659 120.944 222.057 121.337 222.568C121.73 223.08 121.973 223.676 122.068 224.358H120.392C120.264 223.861 119.98 223.42 119.54 223.037C119.104 222.649 118.517 222.455 117.778 222.455C117.125 222.455 116.552 222.625 116.06 222.966C115.572 223.302 115.191 223.778 114.916 224.393C114.646 225.004 114.511 225.722 114.511 226.545C114.511 227.388 114.644 228.122 114.909 228.747C115.179 229.372 115.558 229.857 116.045 230.203C116.538 230.549 117.116 230.722 117.778 230.722C118.214 230.722 118.609 230.646 118.964 230.494C119.32 230.343 119.62 230.125 119.866 229.841C120.113 229.557 120.288 229.216 120.392 228.818H122.068C121.973 229.462 121.739 230.042 121.365 230.558C120.996 231.07 120.506 231.477 119.895 231.78C119.289 232.078 118.583 232.227 117.778 232.227ZM129.092 232.227C128.041 232.227 127.134 231.995 126.372 231.531C125.615 231.062 125.03 230.409 124.618 229.571C124.211 228.728 124.007 227.748 124.007 226.631C124.007 225.513 124.211 224.528 124.618 223.676C125.03 222.819 125.603 222.152 126.337 221.673C127.075 221.19 127.937 220.949 128.922 220.949C129.49 220.949 130.051 221.044 130.605 221.233C131.159 221.422 131.663 221.73 132.118 222.156C132.572 222.578 132.935 223.136 133.205 223.832C133.474 224.528 133.609 225.385 133.609 226.403V227.114H125.2V225.665H131.905C131.905 225.049 131.782 224.5 131.536 224.017C131.294 223.534 130.948 223.153 130.499 222.874C130.054 222.594 129.528 222.455 128.922 222.455C128.254 222.455 127.677 222.62 127.189 222.952C126.706 223.278 126.334 223.705 126.074 224.23C125.813 224.756 125.683 225.319 125.683 225.92V226.886C125.683 227.71 125.825 228.409 126.109 228.982C126.398 229.55 126.798 229.983 127.31 230.281C127.821 230.575 128.415 230.722 129.092 230.722C129.533 230.722 129.93 230.66 130.286 230.537C130.645 230.409 130.955 230.22 131.216 229.969C131.476 229.713 131.678 229.396 131.82 229.017L133.439 229.472C133.268 230.021 132.982 230.504 132.58 230.92C132.177 231.332 131.68 231.654 131.088 231.886C130.496 232.114 129.831 232.227 129.092 232.227ZM142.011 232V217.455H143.773V230.438H150.534V232H142.011ZM156.244 232.256C155.553 232.256 154.926 232.125 154.362 231.865C153.799 231.6 153.351 231.219 153.02 230.722C152.688 230.22 152.523 229.614 152.523 228.903C152.523 228.278 152.646 227.772 152.892 227.384C153.138 226.991 153.467 226.683 153.879 226.46C154.291 226.238 154.746 226.072 155.243 225.963C155.745 225.849 156.249 225.759 156.756 225.693C157.419 225.608 157.956 225.544 158.368 225.501C158.785 225.454 159.088 225.376 159.277 225.267C159.471 225.158 159.568 224.969 159.568 224.699V224.642C159.568 223.941 159.376 223.397 158.993 223.009C158.614 222.62 158.039 222.426 157.267 222.426C156.467 222.426 155.839 222.601 155.385 222.952C154.93 223.302 154.611 223.676 154.426 224.074L152.835 223.506C153.119 222.843 153.498 222.327 153.972 221.957C154.45 221.583 154.971 221.323 155.534 221.176C156.102 221.025 156.661 220.949 157.21 220.949C157.561 220.949 157.963 220.991 158.418 221.077C158.877 221.157 159.32 221.325 159.746 221.581C160.177 221.837 160.534 222.223 160.818 222.739C161.102 223.255 161.244 223.946 161.244 224.812V232H159.568V230.523H159.483C159.369 230.759 159.18 231.013 158.915 231.283C158.65 231.553 158.297 231.782 157.857 231.972C157.416 232.161 156.879 232.256 156.244 232.256ZM156.5 230.75C157.163 230.75 157.722 230.62 158.176 230.359C158.635 230.099 158.981 229.763 159.213 229.351C159.45 228.939 159.568 228.506 159.568 228.051V226.517C159.497 226.602 159.341 226.68 159.099 226.751C158.863 226.818 158.588 226.877 158.276 226.929C157.968 226.976 157.667 227.019 157.374 227.057C157.085 227.09 156.85 227.118 156.67 227.142C156.235 227.199 155.828 227.291 155.449 227.419C155.075 227.542 154.772 227.729 154.54 227.98C154.313 228.226 154.199 228.562 154.199 228.989C154.199 229.571 154.414 230.011 154.845 230.31C155.281 230.603 155.832 230.75 156.5 230.75ZM164.531 232V217.455H166.207V222.824H166.349C166.472 222.634 166.643 222.393 166.86 222.099C167.083 221.801 167.4 221.536 167.812 221.304C168.229 221.067 168.792 220.949 169.502 220.949C170.421 220.949 171.231 221.179 171.931 221.638C172.632 222.097 173.179 222.748 173.572 223.591C173.965 224.434 174.162 225.428 174.162 226.574C174.162 227.729 173.965 228.731 173.572 229.578C173.179 230.421 172.635 231.074 171.939 231.538C171.243 231.998 170.44 232.227 169.531 232.227C168.83 232.227 168.269 232.111 167.848 231.879C167.426 231.643 167.102 231.375 166.875 231.077C166.647 230.774 166.472 230.523 166.349 230.324H166.15V232H164.531ZM166.179 226.545C166.179 227.369 166.299 228.096 166.541 228.726C166.782 229.351 167.135 229.841 167.599 230.196C168.063 230.546 168.631 230.722 169.304 230.722C170.004 230.722 170.589 230.537 171.058 230.168C171.531 229.794 171.886 229.292 172.123 228.662C172.365 228.027 172.485 227.322 172.485 226.545C172.485 225.778 172.367 225.087 172.13 224.472C171.898 223.851 171.546 223.361 171.072 223.001C170.603 222.637 170.014 222.455 169.304 222.455C168.622 222.455 168.049 222.627 167.585 222.973C167.121 223.314 166.77 223.792 166.534 224.408C166.297 225.018 166.179 225.731 166.179 226.545ZM184.453 223.534L182.947 223.96C182.852 223.709 182.713 223.465 182.528 223.229C182.348 222.987 182.102 222.788 181.789 222.632C181.477 222.476 181.077 222.398 180.589 222.398C179.922 222.398 179.365 222.552 178.92 222.859C178.48 223.162 178.26 223.548 178.26 224.017C178.26 224.434 178.411 224.763 178.714 225.004C179.017 225.246 179.491 225.447 180.135 225.608L181.754 226.006C182.729 226.242 183.456 226.605 183.934 227.092C184.413 227.575 184.652 228.198 184.652 228.96C184.652 229.585 184.472 230.144 184.112 230.636C183.757 231.129 183.26 231.517 182.62 231.801C181.981 232.085 181.238 232.227 180.39 232.227C179.278 232.227 178.357 231.986 177.627 231.503C176.898 231.02 176.437 230.314 176.243 229.386L177.833 228.989C177.985 229.576 178.271 230.016 178.693 230.31C179.119 230.603 179.675 230.75 180.362 230.75C181.143 230.75 181.763 230.584 182.223 230.253C182.687 229.917 182.919 229.514 182.919 229.045C182.919 228.667 182.786 228.349 182.521 228.094C182.256 227.833 181.849 227.639 181.299 227.511L179.481 227.085C178.482 226.848 177.748 226.482 177.279 225.984C176.815 225.482 176.583 224.855 176.583 224.102C176.583 223.487 176.756 222.942 177.102 222.469C177.452 221.995 177.928 221.624 178.529 221.354C179.136 221.084 179.822 220.949 180.589 220.949C181.669 220.949 182.516 221.186 183.132 221.659C183.752 222.133 184.192 222.758 184.453 223.534Z" fill="white"/>
<path d="M42.25 67V32.0909H51.7273V59.3636H65.8409V67H42.25ZM82.3537 67.4773C79.5582 67.4773 77.1491 66.9432 75.1264 65.875C73.1151 64.7955 71.5639 63.25 70.473 61.2386C69.3935 59.2159 68.8537 56.7955 68.8537 53.9773C68.8537 51.2727 69.3991 48.9091 70.4901 46.8864C71.581 44.8636 73.1207 43.2898 75.1094 42.1648C77.098 41.0398 79.4446 40.4773 82.1491 40.4773C84.1264 40.4773 85.9162 40.7841 87.5185 41.3977C89.1207 42.0114 90.4901 42.9034 91.6264 44.0739C92.7628 45.233 93.6378 46.642 94.2514 48.3011C94.8651 49.9602 95.1719 51.8295 95.1719 53.9091V56.0909H71.7855V50.9091H86.5128C86.5014 50.1591 86.3082 49.5 85.9332 48.9318C85.5696 48.3523 85.0753 47.9034 84.4503 47.5852C83.8366 47.2557 83.1378 47.0909 82.3537 47.0909C81.5923 47.0909 80.8935 47.2557 80.2571 47.5852C79.6207 47.9034 79.1094 48.3466 78.723 48.9148C78.348 49.483 78.1491 50.1477 78.1264 50.9091V56.5C78.1264 57.3409 78.3026 58.0909 78.6548 58.75C79.0071 59.4091 79.5128 59.9261 80.1719 60.3011C80.831 60.6761 81.6264 60.8636 82.5582 60.8636C83.206 60.8636 83.7969 60.7727 84.331 60.5909C84.8764 60.4091 85.3423 60.1477 85.7287 59.8068C86.1151 59.4545 86.3991 59.0341 86.581 58.5455H95.1719C94.8764 60.3636 94.1776 61.9432 93.0753 63.2841C91.973 64.6136 90.5128 65.6477 88.6946 66.3864C86.8878 67.1136 84.7741 67.4773 82.3537 67.4773ZM111.625 77.3636C109 77.3636 106.75 76.9886 104.875 76.2386C103.011 75.5 101.563 74.4773 100.528 73.1705C99.5057 71.875 98.9318 70.3864 98.8068 68.7045H107.875C107.966 69.2614 108.193 69.7102 108.557 70.0511C108.92 70.392 109.386 70.6364 109.955 70.7841C110.534 70.9432 111.182 71.0227 111.898 71.0227C113.114 71.0227 114.119 70.7273 114.915 70.1364C115.722 69.5455 116.125 68.4773 116.125 66.9318V62.5H115.852C115.511 63.3864 114.989 64.142 114.284 64.767C113.58 65.3807 112.733 65.8523 111.744 66.1818C110.756 66.5 109.67 66.6591 108.489 66.6591C106.625 66.6591 104.909 66.2273 103.341 65.3636C101.784 64.5 100.534 63.1307 99.5909 61.2557C98.6591 59.3807 98.1932 56.9318 98.1932 53.9091C98.1932 50.75 98.6818 48.1818 99.6591 46.2045C100.648 44.2273 101.92 42.7784 103.477 41.858C105.045 40.9375 106.693 40.4773 108.42 40.4773C109.716 40.4773 110.852 40.7045 111.83 41.1591C112.807 41.6023 113.625 42.1989 114.284 42.9489C114.943 43.6875 115.443 44.5 115.784 45.3864H115.989V40.8182H125.398V66.9318C125.398 69.1477 124.824 71.0284 123.676 72.5739C122.54 74.1307 120.938 75.3182 118.869 76.1364C116.801 76.9545 114.386 77.3636 111.625 77.3636ZM111.966 59.9773C112.83 59.9773 113.568 59.7386 114.182 59.2614C114.807 58.7727 115.284 58.0795 115.614 57.1818C115.955 56.2727 116.125 55.1818 116.125 53.9091C116.125 52.6136 115.955 51.5057 115.614 50.5852C115.284 49.6534 114.807 48.9432 114.182 48.4545C113.568 47.9545 112.83 47.7045 111.966 47.7045C111.102 47.7045 110.364 47.9545 109.75 48.4545C109.148 48.9432 108.682 49.6534 108.352 50.5852C108.034 51.5057 107.875 52.6136 107.875 53.9091C107.875 55.2045 108.034 56.3068 108.352 57.2159C108.682 58.1136 109.148 58.8011 109.75 59.2784C110.364 59.7443 111.102 59.9773 111.966 59.9773ZM137.479 67.4091C135.808 67.4091 134.331 67.1364 133.047 66.5909C131.774 66.0341 130.774 65.1932 130.047 64.0682C129.32 62.9432 128.956 61.5114 128.956 59.7727C128.956 58.3409 129.2 57.1193 129.689 56.108C130.178 55.0852 130.859 54.25 131.734 53.6023C132.609 52.9545 133.626 52.4602 134.786 52.1193C135.956 51.7784 137.217 51.5568 138.57 51.4545C140.036 51.3409 141.212 51.2045 142.098 51.0455C142.996 50.875 143.643 50.642 144.041 50.3466C144.439 50.0398 144.638 49.6364 144.638 49.1364V49.0682C144.638 48.3864 144.376 47.8636 143.854 47.5C143.331 47.1364 142.661 46.9545 141.842 46.9545C140.945 46.9545 140.212 47.1534 139.643 47.5511C139.087 47.9375 138.751 48.5341 138.638 49.3409H129.979C130.092 47.75 130.598 46.2841 131.496 44.9432C132.405 43.5909 133.729 42.5114 135.467 41.7045C137.206 40.8864 139.376 40.4773 141.979 40.4773C143.854 40.4773 145.536 40.6989 147.024 41.142C148.513 41.5739 149.78 42.1818 150.825 42.9659C151.871 43.7386 152.666 44.6477 153.212 45.6932C153.768 46.7273 154.047 47.8523 154.047 49.0682V67H145.251V63.3182H145.047C144.524 64.2955 143.888 65.0852 143.138 65.6875C142.399 66.2898 141.553 66.7273 140.598 67C139.655 67.2727 138.615 67.4091 137.479 67.4091ZM140.547 61.4773C141.263 61.4773 141.933 61.3295 142.558 61.0341C143.195 60.7386 143.712 60.3125 144.109 59.7557C144.507 59.1989 144.706 58.5227 144.706 57.7273V55.5455C144.456 55.6477 144.189 55.7443 143.905 55.8352C143.632 55.9261 143.337 56.0114 143.018 56.0909C142.712 56.1705 142.382 56.2443 142.03 56.3125C141.689 56.3807 141.331 56.4432 140.956 56.5C140.229 56.6136 139.632 56.8011 139.166 57.0625C138.712 57.3125 138.371 57.625 138.143 58C137.928 58.3636 137.82 58.7727 137.82 59.2273C137.82 59.9545 138.075 60.5114 138.587 60.8977C139.098 61.2841 139.751 61.4773 140.547 61.4773ZM171.156 67.4773C168.315 67.4773 165.884 66.9148 163.861 65.7898C161.838 64.6534 160.287 63.0739 159.207 61.0511C158.128 59.017 157.588 56.6591 157.588 53.9773C157.588 51.2955 158.128 48.9432 159.207 46.9205C160.287 44.8864 161.838 43.3068 163.861 42.1818C165.884 41.0455 168.315 40.4773 171.156 40.4773C173.724 40.4773 175.946 40.9432 177.821 41.875C179.707 42.7955 181.168 44.1023 182.202 45.7955C183.236 47.4773 183.759 49.4545 183.77 51.7273H175.043C174.918 50.3523 174.52 49.3068 173.849 48.5909C173.19 47.8636 172.338 47.5 171.293 47.5C170.474 47.5 169.759 47.7386 169.145 48.2159C168.531 48.6818 168.054 49.392 167.713 50.3466C167.372 51.2898 167.202 52.4773 167.202 53.9091C167.202 55.3409 167.372 56.5341 167.713 57.4886C168.054 58.4318 168.531 59.142 169.145 59.6193C169.759 60.0852 170.474 60.3182 171.293 60.3182C171.986 60.3182 172.599 60.1591 173.134 59.8409C173.668 59.5114 174.099 59.0341 174.429 58.4091C174.77 57.7727 174.974 57 175.043 56.0909H183.77C183.736 58.3977 183.207 60.4091 182.185 62.125C181.162 63.8295 179.713 65.1477 177.838 66.0795C175.974 67.0114 173.747 67.4773 171.156 67.4773ZM193.379 76.8182C192.3 76.8182 191.271 76.733 190.294 76.5625C189.317 76.4034 188.459 76.1818 187.72 75.8977L189.766 69.2159C190.538 69.4886 191.243 69.6648 191.879 69.7443C192.527 69.8239 193.078 69.7784 193.533 69.608C193.999 69.4375 194.334 69.1136 194.538 68.6364L194.743 68.1591L185.538 40.8182H195.357L199.584 58.9545H199.857L204.152 40.8182H214.038L204.493 69.1818C204.016 70.625 203.322 71.9205 202.413 73.0682C201.516 74.2273 200.334 75.142 198.868 75.8125C197.402 76.483 195.572 76.8182 193.379 76.8182Z" fill="white"/>
<path d="M128 156C126.426 156 125.107 155.472 124.044 154.416C122.981 153.36 122.448 152.055 122.444 150.5C122.441 148.945 122.974 147.64 124.044 146.584C125.115 145.528 126.433 145 128 145C129.567 145 130.887 145.528 131.961 146.584C133.035 147.64 133.567 148.945 133.556 150.5C133.544 152.055 133.011 153.362 131.956 154.421C130.9 155.481 129.581 156.007 128 156ZM101.822 154.416C100.756 153.367 100.222 152.062 100.222 150.5C100.222 148.938 100.756 147.633 101.822 146.584C102.889 145.535 104.207 145.007 105.778 145C107.348 144.993 108.669 145.521 109.739 146.584C110.809 147.647 111.341 148.953 111.333 150.5C111.326 152.047 110.793 153.354 109.733 154.421C108.674 155.488 107.356 156.015 105.778 156C104.2 155.985 102.881 155.457 101.822 154.416ZM150.222 156C148.648 156 147.33 155.472 146.267 154.416C145.204 153.36 144.67 152.055 144.667 150.5C144.663 148.945 145.196 147.64 146.267 146.584C147.337 145.528 148.656 145 150.222 145C151.789 145 153.109 145.528 154.183 146.584C155.257 147.64 155.789 148.945 155.778 150.5C155.767 152.055 155.233 153.362 154.178 154.421C153.122 155.481 151.804 156.007 150.222 156ZM128 178C126.426 178 125.107 177.472 124.044 176.416C122.981 175.36 122.448 174.055 122.444 172.5C122.441 170.945 122.974 169.64 124.044 168.584C125.115 167.528 126.433 167 128 167C129.567 167 130.887 167.528 131.961 168.584C133.035 169.64 133.567 170.945 133.556 172.5C133.544 174.055 133.011 175.362 131.956 176.421C130.9 177.481 129.581 178.007 128 178ZM101.822 176.416C100.756 175.367 100.222 174.062 100.222 172.5C100.222 170.938 100.756 169.633 101.822 168.584C102.889 167.535 104.207 167.007 105.778 167C107.348 166.993 108.669 167.521 109.739 168.584C110.809 169.647 111.341 170.953 111.333 172.5C111.326 174.047 110.793 175.354 109.733 176.421C108.674 177.488 107.356 178.015 105.778 178C104.2 177.985 102.881 177.457 101.822 176.416ZM150.222 178C148.648 178 147.33 177.472 146.267 176.416C145.204 175.36 144.67 174.055 144.667 172.5C144.663 170.945 145.196 169.64 146.267 168.584C147.337 167.528 148.656 167 150.222 167C151.789 167 153.109 167.528 154.183 168.584C155.257 169.64 155.789 170.945 155.778 172.5C155.767 174.055 155.233 175.362 154.178 176.421C153.122 177.481 151.804 178.007 150.222 178ZM89.1111 200C86.0556 200 83.4407 198.924 81.2667 196.771C79.0926 194.619 78.0037 192.029 78 189V112C78 108.975 79.0889 106.386 81.2667 104.234C83.4444 102.082 86.0593 101.004 89.1111 101H94.6667V90H105.778V101H150.222V90H161.333V101H166.889C169.944 101 172.561 102.078 174.739 104.234C176.917 106.39 178.004 108.979 178 112V189C178 192.025 176.913 194.615 174.739 196.771C172.565 198.927 169.948 200.004 166.889 200H89.1111ZM89.1111 189H166.889V134H89.1111V189Z" fill="white"/>
</svg>
