<svg width="256" height="256" viewBox="0 0 256 256" fill="none" xmlns="http://www.w3.org/2000/svg">
<rect width="256" height="256" rx="25" fill="black"/>
<path d="M71.6136 222.455L75.3636 228.506H75.4773L79.2273 222.455H81.3011L76.7273 229.727L81.3011 237H79.2273L75.4773 231.062H75.3636L71.6136 237H69.5398L74.2273 229.727L69.5398 222.455H71.6136ZM83.5934 237V222.455H92.315V224.017H85.3548V228.932H91.6616V230.494H85.3548V237H83.5934ZM98.7354 237.227C97.7506 237.227 96.8865 236.993 96.1431 236.524C95.4045 236.055 94.8268 235.4 94.4102 234.557C93.9982 233.714 93.7923 232.729 93.7923 231.602C93.7923 230.466 93.9982 229.474 94.4102 228.626C94.8268 227.779 95.4045 227.121 96.1431 226.652C96.8865 226.183 97.7506 225.949 98.7354 225.949C99.7203 225.949 100.582 226.183 101.321 226.652C102.064 227.121 102.642 227.779 103.054 228.626C103.47 229.474 103.679 230.466 103.679 231.602C103.679 232.729 103.47 233.714 103.054 234.557C102.642 235.4 102.064 236.055 101.321 236.524C100.582 236.993 99.7203 237.227 98.7354 237.227ZM98.7354 235.722C99.4835 235.722 100.099 235.53 100.582 235.146C101.065 234.763 101.422 234.259 101.654 233.634C101.886 233.009 102.002 232.331 102.002 231.602C102.002 230.873 101.886 230.194 101.654 229.564C101.422 228.934 101.065 228.425 100.582 228.037C100.099 227.649 99.4835 227.455 98.7354 227.455C97.9873 227.455 97.3718 227.649 96.8888 228.037C96.4059 228.425 96.0484 228.934 95.8164 229.564C95.5844 230.194 95.4684 230.873 95.4684 231.602C95.4684 232.331 95.5844 233.009 95.8164 233.634C96.0484 234.259 96.4059 234.763 96.8888 235.146C97.3718 235.53 97.9873 235.722 98.7354 235.722ZM106.237 237V226.091H107.857V227.739H107.97C108.169 227.199 108.529 226.761 109.05 226.425C109.571 226.089 110.158 225.92 110.811 225.92C110.934 225.92 111.088 225.923 111.273 225.928C111.457 225.932 111.597 225.939 111.692 225.949V227.653C111.635 227.639 111.505 227.618 111.301 227.589C111.102 227.556 110.892 227.54 110.669 227.54C110.139 227.54 109.665 227.651 109.249 227.874C108.837 228.091 108.51 228.394 108.268 228.783C108.032 229.166 107.913 229.604 107.913 230.097V237H106.237ZM117.778 237.227C116.756 237.227 115.875 236.986 115.136 236.503C114.398 236.02 113.83 235.355 113.432 234.507C113.034 233.66 112.835 232.691 112.835 231.602C112.835 230.494 113.039 229.517 113.446 228.669C113.858 227.817 114.431 227.152 115.165 226.673C115.903 226.19 116.765 225.949 117.75 225.949C118.517 225.949 119.208 226.091 119.824 226.375C120.439 226.659 120.944 227.057 121.337 227.568C121.73 228.08 121.973 228.676 122.068 229.358H120.392C120.264 228.861 119.98 228.42 119.54 228.037C119.104 227.649 118.517 227.455 117.778 227.455C117.125 227.455 116.552 227.625 116.06 227.966C115.572 228.302 115.191 228.778 114.916 229.393C114.646 230.004 114.511 230.722 114.511 231.545C114.511 232.388 114.644 233.122 114.909 233.747C115.179 234.372 115.558 234.857 116.045 235.203C116.538 235.549 117.116 235.722 117.778 235.722C118.214 235.722 118.609 235.646 118.964 235.494C119.32 235.343 119.62 235.125 119.866 234.841C120.113 234.557 120.288 234.216 120.392 233.818H122.068C121.973 234.462 121.739 235.042 121.365 235.558C120.996 236.07 120.506 236.477 119.895 236.78C119.289 237.078 118.583 237.227 117.778 237.227ZM129.092 237.227C128.041 237.227 127.134 236.995 126.372 236.531C125.615 236.062 125.03 235.409 124.618 234.571C124.211 233.728 124.007 232.748 124.007 231.631C124.007 230.513 124.211 229.528 124.618 228.676C125.03 227.819 125.603 227.152 126.337 226.673C127.075 226.19 127.937 225.949 128.922 225.949C129.49 225.949 130.051 226.044 130.605 226.233C131.159 226.422 131.663 226.73 132.118 227.156C132.572 227.578 132.935 228.136 133.205 228.832C133.474 229.528 133.609 230.385 133.609 231.403V232.114H125.2V230.665H131.905C131.905 230.049 131.782 229.5 131.536 229.017C131.294 228.534 130.948 228.153 130.499 227.874C130.054 227.594 129.528 227.455 128.922 227.455C128.254 227.455 127.677 227.62 127.189 227.952C126.706 228.278 126.334 228.705 126.074 229.23C125.813 229.756 125.683 230.319 125.683 230.92V231.886C125.683 232.71 125.825 233.409 126.109 233.982C126.398 234.55 126.798 234.983 127.31 235.281C127.821 235.575 128.415 235.722 129.092 235.722C129.533 235.722 129.93 235.66 130.286 235.537C130.645 235.409 130.955 235.22 131.216 234.969C131.476 234.713 131.678 234.396 131.82 234.017L133.439 234.472C133.268 235.021 132.982 235.504 132.58 235.92C132.177 236.332 131.68 236.654 131.088 236.886C130.496 237.114 129.831 237.227 129.092 237.227ZM142.011 237V222.455H143.773V235.438H150.534V237H142.011ZM156.244 237.256C155.553 237.256 154.926 237.125 154.362 236.865C153.799 236.6 153.351 236.219 153.02 235.722C152.688 235.22 152.523 234.614 152.523 233.903C152.523 233.278 152.646 232.772 152.892 232.384C153.138 231.991 153.467 231.683 153.879 231.46C154.291 231.238 154.746 231.072 155.243 230.963C155.745 230.849 156.249 230.759 156.756 230.693C157.419 230.608 157.956 230.544 158.368 230.501C158.785 230.454 159.088 230.376 159.277 230.267C159.471 230.158 159.568 229.969 159.568 229.699V229.642C159.568 228.941 159.376 228.397 158.993 228.009C158.614 227.62 158.039 227.426 157.267 227.426C156.467 227.426 155.839 227.601 155.385 227.952C154.93 228.302 154.611 228.676 154.426 229.074L152.835 228.506C153.119 227.843 153.498 227.327 153.972 226.957C154.45 226.583 154.971 226.323 155.534 226.176C156.102 226.025 156.661 225.949 157.21 225.949C157.561 225.949 157.963 225.991 158.418 226.077C158.877 226.157 159.32 226.325 159.746 226.581C160.177 226.837 160.534 227.223 160.818 227.739C161.102 228.255 161.244 228.946 161.244 229.812V237H159.568V235.523H159.483C159.369 235.759 159.18 236.013 158.915 236.283C158.65 236.553 158.297 236.782 157.857 236.972C157.416 237.161 156.879 237.256 156.244 237.256ZM156.5 235.75C157.163 235.75 157.722 235.62 158.176 235.359C158.635 235.099 158.981 234.763 159.213 234.351C159.45 233.939 159.568 233.506 159.568 233.051V231.517C159.497 231.602 159.341 231.68 159.099 231.751C158.863 231.818 158.588 231.877 158.276 231.929C157.968 231.976 157.667 232.019 157.374 232.057C157.085 232.09 156.85 232.118 156.67 232.142C156.235 232.199 155.828 232.291 155.449 232.419C155.075 232.542 154.772 232.729 154.54 232.98C154.313 233.226 154.199 233.562 154.199 233.989C154.199 234.571 154.414 235.011 154.845 235.31C155.281 235.603 155.832 235.75 156.5 235.75ZM164.531 237V222.455H166.207V227.824H166.349C166.472 227.634 166.643 227.393 166.86 227.099C167.083 226.801 167.4 226.536 167.812 226.304C168.229 226.067 168.792 225.949 169.502 225.949C170.421 225.949 171.231 226.179 171.931 226.638C172.632 227.097 173.179 227.748 173.572 228.591C173.965 229.434 174.162 230.428 174.162 231.574C174.162 232.729 173.965 233.731 173.572 234.578C173.179 235.421 172.635 236.074 171.939 236.538C171.243 236.998 170.44 237.227 169.531 237.227C168.83 237.227 168.269 237.111 167.848 236.879C167.426 236.643 167.102 236.375 166.875 236.077C166.647 235.774 166.472 235.523 166.349 235.324H166.15V237H164.531ZM166.179 231.545C166.179 232.369 166.299 233.096 166.541 233.726C166.782 234.351 167.135 234.841 167.599 235.196C168.063 235.546 168.631 235.722 169.304 235.722C170.004 235.722 170.589 235.537 171.058 235.168C171.531 234.794 171.886 234.292 172.123 233.662C172.365 233.027 172.485 232.322 172.485 231.545C172.485 230.778 172.367 230.087 172.13 229.472C171.898 228.851 171.546 228.361 171.072 228.001C170.603 227.637 170.014 227.455 169.304 227.455C168.622 227.455 168.049 227.627 167.585 227.973C167.121 228.314 166.77 228.792 166.534 229.408C166.297 230.018 166.179 230.731 166.179 231.545ZM184.453 228.534L182.947 228.96C182.852 228.709 182.713 228.465 182.528 228.229C182.348 227.987 182.102 227.788 181.789 227.632C181.477 227.476 181.077 227.398 180.589 227.398C179.922 227.398 179.365 227.552 178.92 227.859C178.48 228.162 178.26 228.548 178.26 229.017C178.26 229.434 178.411 229.763 178.714 230.004C179.017 230.246 179.491 230.447 180.135 230.608L181.754 231.006C182.729 231.242 183.456 231.605 183.934 232.092C184.413 232.575 184.652 233.198 184.652 233.96C184.652 234.585 184.472 235.144 184.112 235.636C183.757 236.129 183.26 236.517 182.62 236.801C181.981 237.085 181.238 237.227 180.39 237.227C179.278 237.227 178.357 236.986 177.627 236.503C176.898 236.02 176.437 235.314 176.243 234.386L177.833 233.989C177.985 234.576 178.271 235.016 178.693 235.31C179.119 235.603 179.675 235.75 180.362 235.75C181.143 235.75 181.763 235.584 182.223 235.253C182.687 234.917 182.919 234.514 182.919 234.045C182.919 233.667 182.786 233.349 182.521 233.094C182.256 232.833 181.849 232.639 181.299 232.511L179.481 232.085C178.482 231.848 177.748 231.482 177.279 230.984C176.815 230.482 176.583 229.855 176.583 229.102C176.583 228.487 176.756 227.942 177.102 227.469C177.452 226.995 177.928 226.624 178.529 226.354C179.136 226.084 179.822 225.949 180.589 225.949C181.669 225.949 182.516 226.186 183.132 226.659C183.752 227.133 184.192 227.758 184.453 228.534Z" fill="white"/>
<path d="M42.25 57V22.0909H51.7273V49.3636H65.8409V57H42.25ZM82.3537 57.4773C79.5582 57.4773 77.1491 56.9432 75.1264 55.875C73.1151 54.7955 71.5639 53.25 70.473 51.2386C69.3935 49.2159 68.8537 46.7955 68.8537 43.9773C68.8537 41.2727 69.3991 38.9091 70.4901 36.8864C71.581 34.8636 73.1207 33.2898 75.1094 32.1648C77.098 31.0398 79.4446 30.4773 82.1491 30.4773C84.1264 30.4773 85.9162 30.7841 87.5185 31.3977C89.1207 32.0114 90.4901 32.9034 91.6264 34.0739C92.7628 35.233 93.6378 36.642 94.2514 38.3011C94.8651 39.9602 95.1719 41.8295 95.1719 43.9091V46.0909H71.7855V40.9091H86.5128C86.5014 40.1591 86.3082 39.5 85.9332 38.9318C85.5696 38.3523 85.0753 37.9034 84.4503 37.5852C83.8366 37.2557 83.1378 37.0909 82.3537 37.0909C81.5923 37.0909 80.8935 37.2557 80.2571 37.5852C79.6207 37.9034 79.1094 38.3466 78.723 38.9148C78.348 39.483 78.1491 40.1477 78.1264 40.9091V46.5C78.1264 47.3409 78.3026 48.0909 78.6548 48.75C79.0071 49.4091 79.5128 49.9261 80.1719 50.3011C80.831 50.6761 81.6264 50.8636 82.5582 50.8636C83.206 50.8636 83.7969 50.7727 84.331 50.5909C84.8764 50.4091 85.3423 50.1477 85.7287 49.8068C86.1151 49.4545 86.3991 49.0341 86.581 48.5455H95.1719C94.8764 50.3636 94.1776 51.9432 93.0753 53.2841C91.973 54.6136 90.5128 55.6477 88.6946 56.3864C86.8878 57.1136 84.7741 57.4773 82.3537 57.4773ZM111.625 67.3636C109 67.3636 106.75 66.9886 104.875 66.2386C103.011 65.5 101.563 64.4773 100.528 63.1705C99.5057 61.875 98.9318 60.3864 98.8068 58.7045H107.875C107.966 59.2614 108.193 59.7102 108.557 60.0511C108.92 60.392 109.386 60.6364 109.955 60.7841C110.534 60.9432 111.182 61.0227 111.898 61.0227C113.114 61.0227 114.119 60.7273 114.915 60.1364C115.722 59.5455 116.125 58.4773 116.125 56.9318V52.5H115.852C115.511 53.3864 114.989 54.142 114.284 54.767C113.58 55.3807 112.733 55.8523 111.744 56.1818C110.756 56.5 109.67 56.6591 108.489 56.6591C106.625 56.6591 104.909 56.2273 103.341 55.3636C101.784 54.5 100.534 53.1307 99.5909 51.2557C98.6591 49.3807 98.1932 46.9318 98.1932 43.9091C98.1932 40.75 98.6818 38.1818 99.6591 36.2045C100.648 34.2273 101.92 32.7784 103.477 31.858C105.045 30.9375 106.693 30.4773 108.42 30.4773C109.716 30.4773 110.852 30.7045 111.83 31.1591C112.807 31.6023 113.625 32.1989 114.284 32.9489C114.943 33.6875 115.443 34.5 115.784 35.3864H115.989V30.8182H125.398V56.9318C125.398 59.1477 124.824 61.0284 123.676 62.5739C122.54 64.1307 120.938 65.3182 118.869 66.1364C116.801 66.9545 114.386 67.3636 111.625 67.3636ZM111.966 49.9773C112.83 49.9773 113.568 49.7386 114.182 49.2614C114.807 48.7727 115.284 48.0795 115.614 47.1818C115.955 46.2727 116.125 45.1818 116.125 43.9091C116.125 42.6136 115.955 41.5057 115.614 40.5852C115.284 39.6534 114.807 38.9432 114.182 38.4545C113.568 37.9545 112.83 37.7045 111.966 37.7045C111.102 37.7045 110.364 37.9545 109.75 38.4545C109.148 38.9432 108.682 39.6534 108.352 40.5852C108.034 41.5057 107.875 42.6136 107.875 43.9091C107.875 45.2045 108.034 46.3068 108.352 47.2159C108.682 48.1136 109.148 48.8011 109.75 49.2784C110.364 49.7443 111.102 49.9773 111.966 49.9773ZM137.479 57.4091C135.808 57.4091 134.331 57.1364 133.047 56.5909C131.774 56.0341 130.774 55.1932 130.047 54.0682C129.32 52.9432 128.956 51.5114 128.956 49.7727C128.956 48.3409 129.2 47.1193 129.689 46.108C130.178 45.0852 130.859 44.25 131.734 43.6023C132.609 42.9545 133.626 42.4602 134.786 42.1193C135.956 41.7784 137.217 41.5568 138.57 41.4545C140.036 41.3409 141.212 41.2045 142.098 41.0455C142.996 40.875 143.643 40.642 144.041 40.3466C144.439 40.0398 144.638 39.6364 144.638 39.1364V39.0682C144.638 38.3864 144.376 37.8636 143.854 37.5C143.331 37.1364 142.661 36.9545 141.842 36.9545C140.945 36.9545 140.212 37.1534 139.643 37.5511C139.087 37.9375 138.751 38.5341 138.638 39.3409H129.979C130.092 37.75 130.598 36.2841 131.496 34.9432C132.405 33.5909 133.729 32.5114 135.467 31.7045C137.206 30.8864 139.376 30.4773 141.979 30.4773C143.854 30.4773 145.536 30.6989 147.024 31.142C148.513 31.5739 149.78 32.1818 150.825 32.9659C151.871 33.7386 152.666 34.6477 153.212 35.6932C153.768 36.7273 154.047 37.8523 154.047 39.0682V57H145.251V53.3182H145.047C144.524 54.2955 143.888 55.0852 143.138 55.6875C142.399 56.2898 141.553 56.7273 140.598 57C139.655 57.2727 138.615 57.4091 137.479 57.4091ZM140.547 51.4773C141.263 51.4773 141.933 51.3295 142.558 51.0341C143.195 50.7386 143.712 50.3125 144.109 49.7557C144.507 49.1989 144.706 48.5227 144.706 47.7273V45.5455C144.456 45.6477 144.189 45.7443 143.905 45.8352C143.632 45.9261 143.337 46.0114 143.018 46.0909C142.712 46.1705 142.382 46.2443 142.03 46.3125C141.689 46.3807 141.331 46.4432 140.956 46.5C140.229 46.6136 139.632 46.8011 139.166 47.0625C138.712 47.3125 138.371 47.625 138.143 48C137.928 48.3636 137.82 48.7727 137.82 49.2273C137.82 49.9545 138.075 50.5114 138.587 50.8977C139.098 51.2841 139.751 51.4773 140.547 51.4773ZM171.156 57.4773C168.315 57.4773 165.884 56.9148 163.861 55.7898C161.838 54.6534 160.287 53.0739 159.207 51.0511C158.128 49.017 157.588 46.6591 157.588 43.9773C157.588 41.2955 158.128 38.9432 159.207 36.9205C160.287 34.8864 161.838 33.3068 163.861 32.1818C165.884 31.0455 168.315 30.4773 171.156 30.4773C173.724 30.4773 175.946 30.9432 177.821 31.875C179.707 32.7955 181.168 34.1023 182.202 35.7955C183.236 37.4773 183.759 39.4545 183.77 41.7273H175.043C174.918 40.3523 174.52 39.3068 173.849 38.5909C173.19 37.8636 172.338 37.5 171.293 37.5C170.474 37.5 169.759 37.7386 169.145 38.2159C168.531 38.6818 168.054 39.392 167.713 40.3466C167.372 41.2898 167.202 42.4773 167.202 43.9091C167.202 45.3409 167.372 46.5341 167.713 47.4886C168.054 48.4318 168.531 49.142 169.145 49.6193C169.759 50.0852 170.474 50.3182 171.293 50.3182C171.986 50.3182 172.599 50.1591 173.134 49.8409C173.668 49.5114 174.099 49.0341 174.429 48.4091C174.77 47.7727 174.974 47 175.043 46.0909H183.77C183.736 48.3977 183.207 50.4091 182.185 52.125C181.162 53.8295 179.713 55.1477 177.838 56.0795C175.974 57.0114 173.747 57.4773 171.156 57.4773ZM193.379 66.8182C192.3 66.8182 191.271 66.733 190.294 66.5625C189.317 66.4034 188.459 66.1818 187.72 65.8977L189.766 59.2159C190.538 59.4886 191.243 59.6648 191.879 59.7443C192.527 59.8239 193.078 59.7784 193.533 59.608C193.999 59.4375 194.334 59.1136 194.538 58.6364L194.743 58.1591L185.538 30.8182H195.357L199.584 48.9545H199.857L204.152 30.8182H214.038L204.493 59.1818C204.016 60.625 203.322 61.9205 202.413 63.0682C201.516 64.2273 200.334 65.142 198.868 65.8125C197.402 66.483 195.572 66.8182 193.379 66.8182Z" fill="white"/>
<path d="M128 155C126.426 155 125.107 154.472 124.044 153.416C122.981 152.36 122.448 151.055 122.444 149.5C122.441 147.945 122.974 146.64 124.044 145.584C125.115 144.528 126.433 144 128 144C129.567 144 130.887 144.528 131.961 145.584C133.035 146.64 133.567 147.945 133.556 149.5C133.544 151.055 133.011 152.362 131.956 153.421C130.9 154.481 129.581 155.007 128 155ZM101.822 153.416C100.756 152.367 100.222 151.062 100.222 149.5C100.222 147.938 100.756 146.633 101.822 145.584C102.889 144.535 104.207 144.007 105.778 144C107.348 143.993 108.669 144.521 109.739 145.584C110.809 146.647 111.341 147.953 111.333 149.5C111.326 151.047 110.793 152.354 109.733 153.421C108.674 154.488 107.356 155.015 105.778 155C104.2 154.985 102.881 154.457 101.822 153.416ZM150.222 155C148.648 155 147.33 154.472 146.267 153.416C145.204 152.36 144.67 151.055 144.667 149.5C144.663 147.945 145.196 146.64 146.267 145.584C147.337 144.528 148.656 144 150.222 144C151.789 144 153.109 144.528 154.183 145.584C155.257 146.64 155.789 147.945 155.778 149.5C155.767 151.055 155.233 152.362 154.178 153.421C153.122 154.481 151.804 155.007 150.222 155ZM128 177C126.426 177 125.107 176.472 124.044 175.416C122.981 174.36 122.448 173.055 122.444 171.5C122.441 169.945 122.974 168.64 124.044 167.584C125.115 166.528 126.433 166 128 166C129.567 166 130.887 166.528 131.961 167.584C133.035 168.64 133.567 169.945 133.556 171.5C133.544 173.055 133.011 174.362 131.956 175.421C130.9 176.481 129.581 177.007 128 177ZM101.822 175.416C100.756 174.367 100.222 173.062 100.222 171.5C100.222 169.938 100.756 168.633 101.822 167.584C102.889 166.535 104.207 166.007 105.778 166C107.348 165.993 108.669 166.521 109.739 167.584C110.809 168.647 111.341 169.953 111.333 171.5C111.326 173.047 110.793 174.354 109.733 175.421C108.674 176.488 107.356 177.015 105.778 177C104.2 176.985 102.881 176.457 101.822 175.416ZM150.222 177C148.648 177 147.33 176.472 146.267 175.416C145.204 174.36 144.67 173.055 144.667 171.5C144.663 169.945 145.196 168.64 146.267 167.584C147.337 166.528 148.656 166 150.222 166C151.789 166 153.109 166.528 154.183 167.584C155.257 168.64 155.789 169.945 155.778 171.5C155.767 173.055 155.233 174.362 154.178 175.421C153.122 176.481 151.804 177.007 150.222 177ZM89.1111 199C86.0556 199 83.4407 197.924 81.2667 195.771C79.0926 193.619 78.0037 191.029 78 188V111C78 107.975 79.0889 105.386 81.2667 103.234C83.4444 101.082 86.0593 100.004 89.1111 100H94.6667V89H105.778V100H150.222V89H161.333V100H166.889C169.944 100 172.561 101.078 174.739 103.234C176.917 105.39 178.004 107.979 178 111V188C178 191.025 176.913 193.615 174.739 195.771C172.565 197.927 169.948 199.004 166.889 199H89.1111ZM89.1111 188H166.889V133H89.1111V188Z" fill="white"/>
</svg>
